<svg xmlns="http://www.w3.org/2000/svg" xmlns:xlink="http://www.w3.org/1999/xlink" width="150.218" height="36" viewBox="0 0 150.218 36">
  <defs>
    <linearGradient id="linear-gradient" x2="0.977" y2="1" gradientUnits="objectBoundingBox">
      <stop offset="0" stop-color="#fa9c2b"/>
      <stop offset="0.587" stop-color="#814d55"/>
      <stop offset="1" stop-color="#1d0b77"/>
    </linearGradient>
  </defs>
  <g id="Sundial" transform="translate(-425.891 -412)">
    <path id="Path_6117" data-name="Path 6117" d="M10.852-69.626c4.131,0,7.36-2.161,7.36-5.773,0-2.626-1.5-4.131-5.171-5.308l-2.873-.958c-1.368-.438-2.544-.985-2.544-2.38,0-1.313,1.231-2.216,2.982-2.216a4.25,4.25,0,0,1,3.885,2.38l2.982-1.559A7.531,7.531,0,0,0,10.551-89.3c-3.584,0-6.621,2.107-6.621,5.527,0,3.037,2.189,4.432,5.034,5.362l2.763.875c1.915.629,2.709,1.2,2.709,2.271,0,1.368-1.2,2.435-3.666,2.435a5.053,5.053,0,0,1-4.9-2.955L3-74.14C4.259-71.3,7.35-69.626,10.852-69.626Zm16.279,0c3.885,0,6.7-2.216,6.7-6.21v-7.989H30.3v7.688c0,2.134-1.122,3.31-3.119,3.31-2.025,0-3.174-1.122-3.174-3.338v-7.66H20.482v7.989C20.482-71.87,23.164-69.626,27.131-69.626Zm18.248-14.61a5.125,5.125,0,0,0-4.569,2.189v-1.778H37.253v13.789H40.81V-77.2c0-2.326,1.286-3.858,3.447-3.858,1.915,0,3.064,1.231,3.064,3.31v7.715h3.529v-8.427C50.851-81.91,48.936-84.236,45.379-84.236Zm19.589,2.38a5.409,5.409,0,0,0-4.542-2.38A7.063,7.063,0,0,0,53.4-76.849a6.932,6.932,0,0,0,6.922,7.223,5.714,5.714,0,0,0,4.651-2.353v1.942h3.393V-89.3H64.968Zm-4.022,9.028a3.976,3.976,0,0,1-4.076-4.1,4,4,0,0,1,4.1-4.1,4.079,4.079,0,0,1,4.1,4.1A4.069,4.069,0,0,1,60.946-72.827Zm12.777-13.1a2.448,2.448,0,0,0,2.435-2.38,2.453,2.453,0,0,0-2.435-2.408,2.41,2.41,0,0,0-2.408,2.408A2.387,2.387,0,0,0,73.723-85.932Zm1.806,15.9V-83.826H71.972v13.789ZM89.837-81.8a5.38,5.38,0,0,0-4.569-2.435,7.069,7.069,0,0,0-7.059,7.387,6.954,6.954,0,0,0,6.949,7.223,5.669,5.669,0,0,0,4.651-2.38v1.97H93.2V-84.564Zm-4.049,8.974a3.976,3.976,0,0,1-4.076-4.1,4,4,0,0,1,4.1-4.1,4.079,4.079,0,0,1,4.1,4.1A4.069,4.069,0,0,1,85.788-72.827Zm14.555,2.791V-89.3H96.786v19.261Z" transform="translate(475.766 510.173)" fill="#1d0b77"/>
    <g id="Logo_Option_1" data-name="Logo Option 1" transform="translate(425.891 412)">
      <path id="round_1" data-name="round 1" d="M22.922,0C35.581,0,45.844,6.611,45.844,14.766S35.581,29.531,22.922,29.531,0,22.92,0,14.766,10.262,0,22.922,0Z" transform="translate(0 6.469)" fill="#2b1258"/>
      <path id="Union_480" data-name="Union 480" d="M0,20.182c0-6.8,7.1-12.522,16.779-14.27L16.368.567,17.5,0,18.4.749l2.119,4.7c.813-.056,1.641-.085,2.477-.085,12.7,0,23,6.634,23,14.819S35.7,35,23,35,0,28.366,0,20.182Z" fill="url(#linear-gradient)"/>
      <path id="Subtraction_193" data-name="Subtraction 193" d="M17.5,12a24.866,24.866,0,0,1-6.812-.926A21.273,21.273,0,0,1,7.716,9.988a17.97,17.97,0,0,1-2.59-1.439A14.5,14.5,0,0,1,2.989,6.8a11.42,11.42,0,0,1-1.613-2A9.2,9.2,0,0,1,.356,2.592,8.162,8.162,0,0,1,0,.217C0,.145,0,.072,0,0c.083,3.1,1.94,6.009,5.229,8.186A22.424,22.424,0,0,0,17.5,11.566a22.425,22.425,0,0,0,12.268-3.38C33.057,6.009,34.914,3.1,35,0c0,.076,0,.149,0,.217a8.162,8.162,0,0,1-.356,2.375A9.2,9.2,0,0,1,33.625,4.8a11.419,11.419,0,0,1-1.613,2,14.5,14.5,0,0,1-2.137,1.744,17.97,17.97,0,0,1-2.59,1.439,21.273,21.273,0,0,1-2.973,1.086A24.866,24.866,0,0,1,17.5,12Z" transform="translate(6 21)" fill="#2b1258"/>
      <path id="Line" d="M0-1l.9.747L10.969,22.062,0,14.187Z" transform="translate(16.313 1.563)" fill="#08041e"/>
      <path id="Path_13560" data-name="Path 13560" d="M-58.62,3.31-42.642,0l10.968,7.869Z" transform="translate(58.954 15.75)" opacity="0.5"/>
    </g>
  </g>
</svg>
